<?xml version="1.0" encoding="UTF-8"?>
<!DOCTYPE svg PUBLIC "-//W3C//DTD SVG 1.1//EN" "http://www.w3.org/Graphics/SVG/1.1/DTD/svg11.dtd">
<!-- Creator: CorelDRAW -->
<svg xmlns="http://www.w3.org/2000/svg" xml:space="preserve" width="50mm" height="50.6443mm" version="1.1" style="shape-rendering:geometricPrecision; text-rendering:geometricPrecision; image-rendering:optimizeQuality; fill-rule:evenodd; clip-rule:evenodd"
viewBox="0 0 4989.83 5054.14"
 xmlns:xlink="http://www.w3.org/1999/xlink"
 xmlns:xodm="http://www.corel.com/coreldraw/odm/2003">
 <defs>
  <style type="text/css">
   <![CDATA[
    .fil1 {fill:black}
    .fil0 {fill:black;fill-rule:nonzero}
   ]]>
  </style>
 </defs>
 <g id="Layer_x0020_1">
  <metadata id="CorelCorpID_0Corel-Layer"/>
  <g id="_2676060416352">
   <path class="fil0" d="M250.86 2268.46l155.71 20.63 -11.72 87.66 -393.65 -52.12 41.67 -315c4.71,-35.27 14.06,-59.4 27.94,-72.41 13.99,-13.02 34.62,-17.62 61.86,-14.05l87.67 11.59c48.94,6.5 69.14,41.99 60.61,106.35l-30.08 227.35zm-170.14 -22.56l105.65 14.01 26.51 -200.47c1.4,-9.99 -0.78,-18.88 -6.3,-26.68 -5.51,-7.79 -13.15,-12.26 -22.88,-13.54l-37.6 -5.1c-9.74,-1.27 -18.38,1.15 -25.69,7.17 -7.43,6.14 -11.78,14.14 -13.05,24.24l-26.63 200.34z"/>
   <path id="_1" class="fil0" d="M461.01 1519.21l209.9 -80.23 -49.07 106.55 -206.3 72.35 -33.72 73.21 142.72 65.69 -36.97 80.35 -360.87 -166.11 132.89 -288.64c14.98,-32.36 31.02,-52.75 48.21,-60.91 17.07,-8.29 38.15,-6.69 63.13,4.8l80.34 36.97c44.78,20.73 53.69,60.5 26.46,119.56l-16.73 36.41zm-234.95 100.07l96.7 44.58 84.55 -183.69c4.25,-9.1 4.91,-18.23 1.88,-27.37 -2.91,-9.02 -8.91,-15.59 -17.9,-19.72l-34.45 -15.86c-8.98,-4.11 -17.86,-4.41 -26.65,-0.76 -8.9,3.65 -15.35,10.03 -19.59,19.25l-84.55 183.57z"/>
   <polygon id="_2" class="fil0" points="807.54,1249.53 755.58,1321.19 433.7,1088.05 485.67,1016.39 "/>
   <polygon id="_3" class="fil0" points="1190.71,853.5 801.36,809.03 989.59,1027.07 922.63,1084.94 663.25,784.36 739.47,718.5 1128.83,762.97 940.59,544.92 1007.55,487.18 1266.93,787.75 "/>
   <polygon id="_4" class="fil0" points="1589.73,600.26 1510.99,640.75 1360.63,348.35 1203.15,429.35 1171.69,368.35 1565.39,165.85 1596.73,226.97 1439.37,307.97 "/>
   <path id="_5" class="fil0" d="M2104.12 104.07c-2.15,-27.38 3.53,-47.76 17.14,-61.05 13.74,-13.28 38.24,-21.45 73.87,-24.38l219.59 -17.87c35.63,-2.82 61.19,1.23 76.8,12.1 15.6,10.89 24.61,30.08 26.75,57.45l1.47 18 -87.08 21.63 -3.34 -41.42 -237.71 19.33 7.2 88.16 228.72 -18.54c35.51,-2.94 61.06,1.1 76.8,12.11 15.6,10.88 24.47,30.07 26.75,57.44l6.54 81c2.4,29.09 -3.14,50.35 -16.5,64 -13.37,13.65 -38.11,21.94 -74.12,24.87l-219.71 17.88c-36.01,2.94 -61.69,-1.23 -77.18,-12.48 -15.38,-11.38 -24.25,-31.55 -26.65,-60.65l-2.41 -30.57 86.96 -21.63 4.41 54.13 237.71 -19.34 -8.27 -102.71 -228.72 18.68c-36,2.93 -61.81,-1.35 -77.18,-12.61 -15.48,-11.38 -24.37,-31.55 -26.65,-60.52l-5.19 -63z"/>
   <polygon id="_6" class="fil0" points="2915.46,443.22 2828.4,427.36 2887.33,103.81 2713.22,72.09 2725.46,4.52 3160.85,83.92 3148.62,151.49 2974.38,119.66 "/>
   <path id="_7" class="fil0" d="M3586.13 257.95l33.95 452.91 -86.25 -39.72 -7.46 -98.85 -230.2 -106.03 -79.9 58.63 -78.74 -36.21 366.16 -268.69 82.44 37.97zm-230.01 164.37l164.62 75.81 -13.87 -186.47 -150.75 110.67z"/>
   <polygon id="_8" class="fil0" points="3861.94,905.46 3792.64,850.62 3996.56,593.02 3857.86,483.2 3900.44,429.55 4247.14,704.01 4204.55,757.81 4065.85,647.98 "/>
   <polygon id="_9" class="fil0" points="4120.37,1178.28 4062.51,1111.32 4363.08,851.93 4420.94,918.89 "/>
   <path id="_10" class="fil0" d="M4531.24 1701.4c-25.88,13.37 -47.71,16.5 -65.48,9.38 -17.78,-7.11 -34.84,-26.82 -51.44,-58.85l-123.85 -241.02c-16.6,-32.16 -22.57,-57.44 -18.04,-76.08 4.52,-18.63 19.78,-34.59 45.66,-47.83l212.07 -109.11c24.4,-12.52 45.36,-15.03 62.9,-7.54 17.53,7.49 34.47,27.07 50.82,58.75l123.85 241.02c16.35,31.67 22.46,56.82 18.41,75.45 -4.15,18.63 -18.43,34.21 -42.82,46.84l-212.07 109zm179.58 -191.82l-132.15 -257.05 -228.1 117.29 132.16 257.05 228.09 -117.29z"/>
   <polygon id="_11" class="fil0" points="4579.97,2274.14 4816.5,1961.42 4532.77,2012.6 4517.17,1925.44 4908.17,1855.01 4926.03,1954.14 4689.5,2266.87 4973.22,2215.81 4988.95,2302.86 4597.95,2373.4 "/>
   <path class="fil0" d="M4738.98 2785.67l-155.71 -20.63 11.72 -87.66 393.65 52.12 -41.67 315c-4.71,35.27 -14.06,59.4 -27.94,72.41 -13.99,13.02 -34.62,17.62 -61.86,14.05l-87.67 -11.59c-48.94,-6.5 -69.14,-41.99 -60.61,-106.35l30.08 -227.35zm170.14 22.56l-105.65 -14.01 -26.51 200.47c-1.4,9.99 0.78,18.88 6.3,26.68 5.51,7.79 13.15,12.26 22.88,13.54l37.6 5.1c9.87,1.28 18.38,-1.15 25.69,-7.17 7.43,-6.14 11.78,-14.14 13.05,-24.24l26.63 -200.34z"/>
   <path id="_1_0" class="fil0" d="M4528.82 3534.93l-209.9 80.23 49.07 -106.55 206.3 -72.35 33.72 -73.21 -142.72 -65.69 36.97 -80.35 360.87 166.11 -132.89 288.64c-14.86,32.36 -31.02,52.75 -48.21,60.91 -17.07,8.29 -38.15,6.69 -63.13,-4.8l-80.34 -36.97c-44.78,-20.73 -53.69,-60.5 -26.46,-119.56l16.73 -36.41zm234.95 -100.07l-96.7 -44.58 -84.55 183.69c-4.25,9.1 -4.91,18.23 -1.88,27.37 2.91,9.02 8.91,15.59 17.9,19.72l34.45 15.86c8.98,4.11 17.86,4.41 26.65,0.76 8.9,-3.65 15.35,-10.03 19.59,-19.25l84.55 -183.57z"/>
   <polygon id="_2_1" class="fil0" points="4182.29,3804.61 4234.26,3732.94 4556.13,3966.08 4504.16,4037.75 "/>
   <polygon id="_3_2" class="fil0" points="3799.12,4200.64 4188.47,4245.11 4000.25,4027.06 4067.2,3969.2 4326.59,4269.77 4250.37,4335.64 3861.01,4291.17 4049.24,4509.22 3982.29,4566.95 3722.9,4266.38 "/>
   <polygon id="_4_3" class="fil0" points="3400.1,4453.88 3478.85,4413.38 3629.2,4705.79 3786.68,4624.79 3818.14,4685.78 3424.44,4888.29 3393.1,4827.17 3550.47,4746.16 "/>
   <path id="_5_4" class="fil0" d="M2885.72 4950.06c2.15,27.38 -3.53,47.76 -17.14,61.05 -13.74,13.28 -38.24,21.45 -73.87,24.38l-219.59 17.87c-35.63,2.82 -61.19,-1.23 -76.8,-12.1 -15.6,-10.89 -24.61,-30.08 -26.75,-57.45l-1.47 -18 87.08 -21.63 3.34 41.42 237.71 -19.33 -7.2 -88.16 -228.72 18.54c-35.51,2.94 -61.06,-1.1 -76.8,-12.11 -15.6,-10.88 -24.47,-30.07 -26.75,-57.44l-6.54 -81c-2.4,-29.09 3.14,-50.35 16.5,-64 13.37,-13.65 38.11,-21.94 74.12,-24.87l219.71 -17.88c36.01,-2.94 61.69,1.23 77.18,12.48 15.38,11.38 24.25,31.55 26.65,60.65l2.41 30.57 -86.96 21.63 -4.41 -54.13 -237.71 19.34 8.27 102.71 228.72 -18.68c36,-2.93 61.81,1.35 77.18,12.61 15.48,11.38 24.37,31.55 26.65,60.52l5.19 63z"/>
   <polygon id="_6_5" class="fil0" points="2074.37,4610.92 2161.43,4626.77 2102.5,4950.33 2276.62,4982.04 2264.38,5049.62 1828.98,4970.22 1841.22,4902.64 2015.46,4934.47 "/>
   <path id="_7_6" class="fil0" d="M1403.71 4796.18l-33.95 -452.91 86.25 39.72 7.46 98.85 230.2 106.03 79.9 -58.63 78.74 36.21 -366.16 268.69 -82.44 -37.97zm230.01 -164.37l-164.62 -75.81 13.87 186.47 150.75 -110.67z"/>
   <polygon id="_8_7" class="fil0" points="1127.89,4148.67 1197.19,4203.52 993.27,4461.11 1131.98,4570.93 1089.4,4624.59 742.69,4350.12 785.28,4296.33 923.98,4406.15 "/>
   <polygon id="_9_8" class="fil0" points="869.46,3875.86 927.33,3942.82 626.75,4202.2 568.89,4135.24 "/>
   <path id="_10_9" class="fil0" d="M458.6 3352.74c25.88,-13.37 47.71,-16.5 65.48,-9.38 17.78,7.11 34.84,26.82 51.44,58.85l123.85 241.02c16.6,32.16 22.57,57.44 18.04,76.08 -4.53,18.51 -19.78,34.59 -45.66,47.83l-212.07 109.11c-24.4,12.52 -45.36,15.03 -62.9,7.54 -17.53,-7.49 -34.47,-27.07 -50.82,-58.75l-123.85 -241.02c-16.35,-31.67 -22.46,-56.82 -18.41,-75.45 4.15,-18.63 18.43,-34.21 42.82,-46.84l212.07 -109zm-179.58 191.82l132.15 257.05 228.1 -117.29 -132.16 -257.05 -228.09 117.29z"/>
   <polygon id="_11_10" class="fil0" points="409.86,2779.99 173.33,3092.71 457.06,3041.53 472.67,3128.7 81.67,3199.12 63.81,3099.99 300.34,2787.26 16.62,2838.33 0.88,2751.28 391.88,2680.73 "/>
   <path class="fil1" d="M2772.65 1465.73l-274.78 -156.92c-4.14,-2.42 -8.98,-2.42 -13.14,0l-1300.67 751.09c-8.99,4.84 -20.05,-1.38 -19.7,-11.4l2.42 -308.67c0,-4.84 2.42,-8.98 6.57,-11.41l1312.09 -757.66c4.14,-2.42 8.98,-2.41 13.12,0.01l858.93 494.27c8.65,5.19 8.65,17.64 0,22.82l-1896.21 1094.32c-4.16,2.42 -6.58,6.57 -6.58,11.41l-1.38 820.58c0,10.02 -11.06,16.59 -19.7,11.41l-262.34 -152.44c-4.16,-2.41 -6.57,-6.55 -6.57,-11.39l1.73 -838.55c0,-4.84 2.42,-8.98 6.57,-11.4l1599.65 -923.23c8.65,-5.19 8.65,-17.64 0,-22.82z"/>
   <path class="fil1" d="M2063.38 3265.18l1725.14 -999.61c19.7,-11.41 29.73,-5.88 29.73,16.93l-0.7 961.94c0,16.6 -8.98,32.16 -23.15,40.11l-1280.98 738.99c-13.82,7.95 -30.75,7.95 -44.59,0l-247.47 -145.52c-8.65,-5.19 -8.3,-17.64 0.34,-22.46l1289.61 -745.57c12.1,-6.91 19.36,-19.7 19.36,-33.53l-0.34 -301.06c0,-9.32 -10.04,-14.86 -17.99,-10.37l-1562.68 899.73c-85.37,49.09 -191.49,-12.43 -191.49,-110.6l-0.34 -778.4c0,-11.06 6.22,-21.43 15.9,-27.31l1874.1 -1083.61c8.99,-5.18 18.31,-6.57 28.35,-4.5 120.29,25.58 167.98,101.28 142.74,226.75 -2.77,13.47 -10.02,23.85 -21.77,30.42l-1745.19 1006.18c-5.52,3.11 -8.98,9.33 -8.98,15.9l-0.34 313.5c0,16.25 6.91,20.06 20.73,12.1z"/>
  </g>
 </g>
</svg>
